.
 
http://www.scenetime.com    -  Hottest private tracker on the net. !!!

New release on http://www.scenetime.com

        Seed back for speed


...................................NFO:.................................................                                                                                                     
       
     
     
       
       
     
     
                                         
                                         
                EXVID                    
                                         
         
                                         
         Filled the Archives             
                                         
         
                                         
                With:                    
                                         
         
                                         
                                    
     E240                           
                                    
     SP               (C) 2009      
                                         
     
     
     
                                                                                  
                                                                                   
             Sucker.Punch.2011.Extended.Cut.BDRip.XviD-EXViD                        
                                                                                   
                                                                                  
     
                                                                                               
EXViD aims to iNTERNAL those releases which have been lost in the archives.
EXViD aims to PRE non-internal releases which have poor sources and are likely skipped by others.
 
http://www.imdb.com/title/tt0978764/
Subtitles: English
Date: 2011.09

Director: Zack Snyder

Genres: Action | Adventure | Fantasy | Thriller

Plot:
A young girl is institutionalized by her abusive stepfather. Retreating to an alternative
reality as a coping strategy, she envisions a plan which will help her escape from the mental
facility.

Cast:
Emily Browning 	 ... 	 Baby Doll
Abbie Cornish 	 ... 	 Sweet Pea
Jena Malone 	 ... 	 Rocket
Vanessa Hudgens 	 ... 	 Blondie
Jamie Chung 	 ... 	 Amber
Carla Gugino 	 ... 	 Dr. Vera Gorski
Oscar Isaac 	 ... 	 Blue Jones
Jon Hamm 	 ... 	 High Roller / Doctor
Scott Glenn 	 ... 	 Wise Man
Richard Cetrone 	 ... 	 CJ
Gerard Plunkett 	 ... 	 Stepfather
Malcolm Scott 	 ... 	 The Cook
Ron Selmour 	 ... 	 Danforth
Alan C. Peterson 	 ... 	 Mayor / Lighter Orderly (as AC Peterson)
Revard Dufresne 	 ... 	 Big Boss Thug / Orderly #3

Stats:
Format                           : AVI
Format/Info                      : Audio Video Interleave
File size                        : 1.37 GiB
Duration                         : 2h 7mn
Overall bit rate                 : 1 533 Kbps
Writing application              : Nandub v1.0rc2
Writing library                  : Nandub build 1852/release

Video
ID                               : 0
Format                           : MPEG-4 Visual
Format profile                   : Advanced Simple@L5
Format settings, BVOP            : 1
Format settings, QPel            : No
Format settings, GMC             : No warppoints
Format settings, Matrix          : Default (H.263)
Codec ID                         : XVID
Codec ID/Hint                    : XviD
Duration                         : 2h 7mn
Bit rate                         : 1 078 Kbps
Width                            : 624 pixels
Height                           : 256 pixels
Display aspect ratio             : 2.40:1
Frame rate                       : 23.976 fps
Color space                      : YUV
Chroma subsampling               : 4:2:0
Bit depth                        : 8 bits
Scan type                        : Progressive
Compression mode                 : Lossy
Bits/(Pixel*Frame)               : 0.282
Stream size                      : 984 MiB (70%)
Writing library                  : XviD 64

Audio
ID                               : 1
Format                           : AC-3
Format/Info                      : Audio Coding 3
Mode extension                   : CM (complete main)
Codec ID                         : 2000
Duration                         : 2h 7mn
Bit rate mode                    : Constant
Bit rate                         : 448 Kbps
Channel(s)                       : 6 channels
Channel positions                : Front: L C R, Side: L R, LFE
Sampling rate                    : 48.0 KHz
Bit depth                        : 16 bits
Compression mode                 : Lossy
Stream size                      : 409 MiB (29%)
Alignment                        : Aligned on interleaves
Interleave, duration             : 96 ms (2.30 video frames)
Interleave, preload duration     : 96 ms




Release notes:
DEFACED did the THEATRiCAL cut. This is the EXTENDED cut which is 17 minutes longer.

enjoy!

Looking for:
75TB+ Archives
DUTCH/FLEMiSH Archives
                                                                                                    
Greets: CRBS EPiSODE FiCO FLS iLS KLASSiGER LiPSYNC MADE NODLABS RUNNER SPRiNTER      
   

                                                                    ASCII DONE BY XX^NFO 2oo9